<svg xmlns="http://www.w3.org/2000/svg" xmlns:xlink="http://www.w3.org/1999/xlink" version="1.1" width="1000" height="1000" viewBox="0 0 1000 1000" xml:space="preserve">
<desc>Created with Fabric.js 3.5.0</desc>
<defs>
</defs>
<rect x="0" y="0" width="100%" height="100%" fill="#ffffff"/>
<g transform="matrix(0.4334 -0.2066 0.4034 0.8463 499.995 500.0025)" id="714859">
<g style="" vector-effect="non-scaling-stroke">
		<g transform="matrix(3.2411 0 0 3.2411 -392.1051 -0.001)" id="rect8099">
<rect style="stroke: none; stroke-width: 0.636; stroke-dasharray: none; stroke-linecap: round; stroke-dashoffset: 0; stroke-linejoin: round; stroke-miterlimit: 4; is-custom-font: none; font-file-url: none; fill: rgb(0,0,0); fill-rule: nonzero; opacity: 1;" x="-4.7039" y="-38.0154" rx="0" ry="0" width="9.4078" height="76.0308"/>
</g>
		<g transform="matrix(3.2411 0 0 3.2411 -431.3715 -0.0009)" id="rect8103">
<rect style="stroke: none; stroke-width: 0.636; stroke-dasharray: none; stroke-linecap: round; stroke-dashoffset: 0; stroke-linejoin: round; stroke-miterlimit: 4; is-custom-font: none; font-file-url: none; fill: rgb(0,0,0); fill-rule: nonzero; opacity: 1;" x="-4.7039" y="-30.1435" rx="0" ry="0" width="9.4078" height="60.287"/>
</g>
		<g transform="matrix(3.2411 0 0 3.2411 -470.6377 -0.0006)" id="rect8105">
<rect style="stroke: none; stroke-width: 0.636; stroke-dasharray: none; stroke-linecap: round; stroke-dashoffset: 0; stroke-linejoin: round; stroke-miterlimit: 4; is-custom-font: none; font-file-url: none; fill: rgb(0,0,0); fill-rule: nonzero; opacity: 1;" x="-4.7039" y="-22.36765" rx="0" ry="0" width="9.4078" height="44.7353"/>
</g>
		<g transform="matrix(3.2411 0 0 3.2411 -513.6525 -0.0026)" id="rect8107">
<path style="stroke: none; stroke-width: 0.636; stroke-dasharray: none; stroke-linecap: round; stroke-dashoffset: 0; stroke-linejoin: round; stroke-miterlimit: 4; is-custom-font: none; font-file-url: none; fill: rgb(0,0,0); fill-rule: nonzero; opacity: 1;" transform=" translate(-0.0723, -38.0146)" d="m -6 33.886719 l 0 8.255859 l 6 0 l 0.14453125 0 l 5.99999995 0 l 0 -8.255859 l -5.99999995 0 l -0.14453125 0 l -6 0 z" stroke-linecap="round"/>
</g>
		<g transform="matrix(3.2411 0 0 3.2411 -0.2552 -0.0002)" id="rect8109">
<rect style="stroke: none; stroke-width: 0.636; stroke-dasharray: none; stroke-linecap: round; stroke-dashoffset: 0; stroke-linejoin: round; stroke-miterlimit: 4; is-custom-font: none; font-file-url: none; fill: rgb(0,0,0); fill-rule: nonzero; opacity: 1;" x="-101.374" y="-4.12795" rx="0" ry="0" width="202.748" height="8.2559"/>
</g>
		<g transform="matrix(-3.2411 0 0 3.2411 392.1067 0.001)" id="rect8119">
<rect style="stroke: none; stroke-width: 0.636; stroke-dasharray: none; stroke-linecap: round; stroke-dashoffset: 0; stroke-linejoin: round; stroke-miterlimit: 4; is-custom-font: none; font-file-url: none; fill: rgb(0,0,0); fill-rule: nonzero; opacity: 1;" x="-4.7039" y="-38.0154" rx="0" ry="0" width="9.4078" height="76.0308"/>
</g>
		<g transform="matrix(-3.2411 0 0 3.2411 431.3731 0.0008)" id="rect8121">
<rect style="stroke: none; stroke-width: 0.636; stroke-dasharray: none; stroke-linecap: round; stroke-dashoffset: 0; stroke-linejoin: round; stroke-miterlimit: 4; is-custom-font: none; font-file-url: none; fill: rgb(0,0,0); fill-rule: nonzero; opacity: 1;" x="-4.7039" y="-30.1435" rx="0" ry="0" width="9.4078" height="60.287"/>
</g>
		<g transform="matrix(-3.2411 0 0 3.2411 470.6396 0.0005)" id="rect8123">
<rect style="stroke: none; stroke-width: 0.636; stroke-dasharray: none; stroke-linecap: round; stroke-dashoffset: 0; stroke-linejoin: round; stroke-miterlimit: 4; is-custom-font: none; font-file-url: none; fill: rgb(0,0,0); fill-rule: nonzero; opacity: 1;" x="-4.7039" y="-22.36765" rx="0" ry="0" width="9.4078" height="44.7353"/>
</g>
		<g transform="matrix(3.2411 0 0 3.2411 513.6553 -0.0026)" id="rect8125">
<path style="stroke: none; stroke-width: 0.636; stroke-dasharray: none; stroke-linecap: round; stroke-dashoffset: 0; stroke-linejoin: round; stroke-miterlimit: 4; is-custom-font: none; font-file-url: none; fill: rgb(0,0,0); fill-rule: nonzero; opacity: 1;" transform=" translate(-317.0322, -38.0146)" d="m 310.96094 33.886719 l 0 8.255859 l 6 0 l 0.14258 0 l 6 0 l 0 -8.255859 l -6 0 l -0.14258 0 l -6 0 z" stroke-linecap="round"/>
</g>
		<g transform="matrix(-3.2411 0 0 3.2411 352.8404 0.001)" id="rect4152">
<rect style="stroke: none; stroke-width: 0.636; stroke-dasharray: none; stroke-linecap: round; stroke-dashoffset: 0; stroke-linejoin: round; stroke-miterlimit: 4; is-custom-font: none; font-file-url: none; fill: rgb(0,0,0); fill-rule: nonzero; opacity: 1;" x="-4.7039" y="-38.0154" rx="0" ry="0" width="9.4078" height="76.0308"/>
</g>
		<g transform="matrix(3.2411 0 0 3.2411 -352.8388 -0.001)" id="rect4154">
<rect style="stroke: none; stroke-width: 0.636; stroke-dasharray: none; stroke-linecap: round; stroke-dashoffset: 0; stroke-linejoin: round; stroke-miterlimit: 4; is-custom-font: none; font-file-url: none; fill: rgb(0,0,0); fill-rule: nonzero; opacity: 1;" x="-4.7039" y="-38.0154" rx="0" ry="0" width="9.4078" height="76.0308"/>
</g>
</g>
</g>
</svg>